<svg id="Layer_1" data-name="Layer 1"
    xmlns="http://www.w3.org/2000/svg" viewBox="0 0 32 32">
    <title>dog</title>
    <path class="cls-1" d="M7,28a1,1,0,0,0,2,0V25a1,1,0,0,0-1-1H8a1,1,0,0,0-1,1Z"/>
    <path class="cls-1" d="M25,8H18a1,1,0,0,1-1-1V5a1,1,0,0,0-2,0v9a1,1,0,0,1-1,1H5a1,1,0,0,1-1-1V10a1,1,0,0,0-2,0V28a1,1,0,0,0,2,0V24a1,1,0,0,1,1-1h9a1,1,0,0,1,1,1v4a1,1,0,0,0,2,0V24a1,1,0,0,1,1-1h4a1,1,0,0,1,1,1v4a1,1,0,0,0,2,0V15.72a1,1,0,0,1,.61-.9,7.49,7.49,0,0,0,4.3-5.68,1,1,0,0,0-1-1.14Zm-6,4a1,1,0,1,1,1-1A1,1,0,0,1,19,12Z"/>
</svg>
