<svg id="Layer_1" data-name="Layer 1"
    xmlns="http://www.w3.org/2000/svg" viewBox="0 0 32 32">
    <title>reference</title>
    <path class="cls-1" d="M29.33,21.94l-1.25,2.15a2,2,0,0,1-2.72.73L20.48,22a.5.5,0,0,0-.75.43V28a2,2,0,0,1-2,2H14.27a2,2,0,0,1-2-2V22.46a.5.5,0,0,0-.75-.43L6.64,24.82a2,2,0,0,1-2.72-.73L2.67,21.94A2,2,0,0,1,3.4,19.2l4.84-2.77a.49.49,0,0,0,0-.86L3.4,12.8a2,2,0,0,1-.73-2.74L3.92,7.91a2,2,0,0,1,2.72-.73L11.52,10a.5.5,0,0,0,.75-.43V4a2,2,0,0,1,2-2h3.46a2,2,0,0,1,2,2V9.54a.5.5,0,0,0,.75.43l4.88-2.79a2,2,0,0,1,2.72.73l1.25,2.15a2,2,0,0,1-.73,2.74l-4.84,2.77a.49.49,0,0,0,0,.86L28.6,19.2A2,2,0,0,1,29.33,21.94Z"/>
</svg>
