<svg width="36" height="34" viewBox="-2 -2 40 38" fill="none" xmlns="http://www.w3.org/2000/svg">
<path fill-rule="evenodd" clip-rule="evenodd" d="M19.6327 0.818284C18.8247 -0.272763 17.1753 -0.272761 16.3673 0.818286L11.0132 8.04823C10.7636 8.38531 10.4132 8.63665 10.0114 8.7669L1.39272 11.5604C0.092106 11.9819 -0.417575 13.5307 0.383688 14.6266L5.69335 21.8884C5.9409 22.227 6.07473 22.6337 6.07601 23.0512L6.10348 32.0077C6.10763 33.3592 7.442 34.3164 8.74518 33.9027L17.3808 31.1608C17.7835 31.033 18.2165 31.033 18.6192 31.1608L27.2548 33.9027C28.558 34.3164 29.8924 33.3592 29.8965 32.0077L29.924 23.0512C29.9253 22.6337 30.0591 22.227 30.3067 21.8884L35.6163 14.6266C36.4176 13.5307 35.9079 11.9819 34.6073 11.5604L25.9886 8.7669C25.5868 8.63665 25.2364 8.38531 24.9868 8.04823L19.6327 0.818284Z" fill="#FFC000"/>
</svg>
